<svg xmlns="http://www.w3.org/2000/svg" xmlns:xlink="http://www.w3.org/1999/xlink" width="39" height="39" viewBox="0 0 39 39">
  <metadata><?xpacket begin="﻿" id="W5M0MpCehiHzreSzNTczkc9d"?>
<x:xmpmeta xmlns:x="adobe:ns:meta/" x:xmptk="Adobe XMP Core 5.6-c142 79.160924, 2017/07/13-01:06:39        ">
   <rdf:RDF xmlns:rdf="http://www.w3.org/1999/02/22-rdf-syntax-ns#">
      <rdf:Description rdf:about=""/>
   </rdf:RDF>
</x:xmpmeta>
                                                                                                    
                                                                                                    
                                                                                                    
                                                                                                    
                                                                                                    
                                                                                                    
                                                                                                    
                                                                                                    
                                                                                                    
                                                                                                    
                                                                                                    
                                                                                                    
                                                                                                    
                                                                                                    
                                                                                                    
                                                                                                    
                                                                                                    
                                                                                                    
                                                                                                    
                                                                                                    
                           
<?xpacket end="w"?></metadata>
<defs>
    <style>
      .cls-1 {
        fill: #ececec;
        fill-rule: evenodd;
        filter: url(#filter);
      }
    </style>
    <filter id="filter" x="631" y="2549" width="39" height="39" filterUnits="userSpaceOnUse">
      <feFlood result="flood" flood-color="#ececec"/>
      <feComposite result="composite" operator="in" in2="SourceGraphic"/>
      <feBlend result="blend" in2="SourceGraphic"/>
    </filter>
  </defs>
  <path id="Coffee_icon_divider_copy_2" data-name="Coffee icon divider copy 2" class="cls-1" d="M668.781,2585.56h-29.25a1.22,1.22,0,0,0,0,2.44h29.25A1.22,1.22,0,0,0,668.781,2585.56Zm0-24.37H633.438a2.434,2.434,0,0,0-2.438,2.43v4.88a7.309,7.309,0,0,0,7.312,7.31h2.438v-0.11a15.836,15.836,0,0,0,29.25-8.42v-4.87A1.215,1.215,0,0,0,668.781,2561.19Zm-30.469,12.18a4.872,4.872,0,0,1-4.874-4.87v-3.66a1.221,1.221,0,0,1,1.218-1.22h3.656v3.66a15.742,15.742,0,0,0,1.219,6.09h-1.219Zm29.251-6.09a13.407,13.407,0,1,1-26.813,0v-3.66h26.813v3.66Zm-13.407-8.53a1.221,1.221,0,0,0,1.219-1.22v-7.31a1.219,1.219,0,1,0-2.438,0v7.31A1.222,1.222,0,0,0,654.156,2558.75Zm-7.312,0a1.221,1.221,0,0,0,1.218-1.22v-4.87a1.219,1.219,0,1,0-2.437,0v4.87A1.221,1.221,0,0,0,646.844,2558.75Zm14.625,0a1.221,1.221,0,0,0,1.218-1.22v-2.44a1.219,1.219,0,1,0-2.437,0v2.44A1.221,1.221,0,0,0,661.469,2558.75Z" transform="translate(-631 -2549)"/>
</svg>
